# xmcd
#
# Track frame offsets:
#	150
#	13020
#	25067
#	37530
#
# Disc length: 632 seconds
#
# Revision: 4
# Processed by: cddbd v1.5.2PL0 Copyright (c) Steve Scherf et al.
# Submitted via: EasyCDDAExtractor 10.5.1.1
#
DISCID=1c027604
DTITLE=Ages Past - Meridian Music Group
DYEAR=1999
DGENRE=Bluegrass
TTITLE0=Dream Of The Past
TTITLE1=Blue And Brokenhearted
TTITLE2=Room Up There For Me
TTITLE3=Light At The River
EXTD=
EXTT0=
EXTT1=Norman Fox and The Rob Roys\n1957 Back Beat Records
EXTT2=The Dell-Vikings\n1957 Dot Records
EXTT3=The Original Casuals\n1958 Back Seat Records
PLAYORDER=
